<svg width="24" height="24" viewBox="0 0 24 24" fill="none" xmlns="http://www.w3.org/2000/svg">
<path fill-rule="evenodd" clip-rule="evenodd" d="M9.21591 5.875L17.5682 5.875C17.7159 5.875 17.8575 5.93366 17.9619 6.03809C18.0663 6.14251 18.125 6.28414 18.125 6.43182V14.7841C18.125 15.0916 17.8757 15.3409 17.5682 15.3409C17.2607 15.3409 17.0114 15.0916 17.0114 14.7841V7.7761L6.82555 17.9619C6.6081 18.1794 6.25554 18.1794 6.03809 17.9619C5.82064 17.7445 5.82064 17.3919 6.03809 17.1745L16.2239 6.98864L9.21591 6.98864C8.90839 6.98864 8.65909 6.73934 8.65909 6.43182C8.65909 6.1243 8.90839 5.875 9.21591 5.875Z" fill="#FBFBFB"/>
</svg>
